<svg xmlns="http://www.w3.org/2000/svg" width="1040" height="930" viewBox="0 0 1040 930" font-family="-apple-system, BlinkMacSystemFont, 'SF Pro Text', 'Segoe UI', Inter, Helvetica, Arial, sans-serif" role="img" aria-label="Architecture: the browser, one brain per session on the server, and the outside services it calls">
<title>Architecture: the browser, one brain per session on the server, and the outside services it calls</title>
<defs>
  <marker id="arrow" viewBox="0 0 10 10" refX="8.5" refY="5" markerWidth="6" markerHeight="6" orient="auto"><path d="M1 1 L9 5 L1 9 z" fill="#8e8e93"/></marker>
  <marker id="arrow-start" viewBox="0 0 10 10" refX="1.5" refY="5" markerWidth="6" markerHeight="6" orient="auto"><path d="M9 1 L1 5 L9 9 z" fill="#8e8e93"/></marker>
  <marker id="arrow-blue" viewBox="0 0 10 10" refX="8.5" refY="5" markerWidth="6" markerHeight="6" orient="auto"><path d="M1 1 L9 5 L1 9 z" fill="#0a84ff"/></marker>
  <marker id="arrow-start-blue" viewBox="0 0 10 10" refX="1.5" refY="5" markerWidth="6" markerHeight="6" orient="auto"><path d="M9 1 L1 5 L9 9 z" fill="#0a84ff"/></marker>
  <marker id="arrow-green" viewBox="0 0 10 10" refX="8.5" refY="5" markerWidth="6" markerHeight="6" orient="auto"><path d="M1 1 L9 5 L1 9 z" fill="#30a45b"/></marker>
  <marker id="arrow-start-green" viewBox="0 0 10 10" refX="1.5" refY="5" markerWidth="6" markerHeight="6" orient="auto"><path d="M9 1 L1 5 L9 9 z" fill="#30a45b"/></marker>
</defs>
<rect x="0.5" y="0.5" width="1039" height="929" rx="24" fill="#ffffff" stroke="#e3e3e8"/>
<rect x="68" y="36" width="608" height="168" rx="22" fill="#f5f5f7"/>
<text x="86" y="66" font-size="14" fill="#8e8e93" font-weight="700" text-anchor="start" letter-spacing="0.08em">BROWSER</text>
<rect x="86" y="84" width="277" height="100" rx="16" fill="#ffffff" stroke="#e3e3e8" stroke-width="1.2"/>
<text x="104" y="116" font-size="19.5" fill="#1d1d1f" font-weight="600" text-anchor="start">Phone</text>
<text x="104" y="142" font-size="16.5" fill="#6e6e73" font-weight="400" text-anchor="start">The iMessage thread and</text>
<text x="104" y="165" font-size="16.5" fill="#6e6e73" font-weight="400" text-anchor="start">the call screens</text>
<rect x="381" y="84" width="277" height="100" rx="16" fill="#ffffff" stroke="#e3e3e8" stroke-width="1.2"/>
<text x="399" y="116" font-size="19.5" fill="#1d1d1f" font-weight="600" text-anchor="start">Reviewer panel</text>
<text x="399" y="142" font-size="16.5" fill="#6e6e73" font-weight="400" text-anchor="start">Drop, lag, deny consent,</text>
<text x="399" y="165" font-size="16.5" fill="#6e6e73" font-weight="400" text-anchor="start">jump time, see the ledger</text>
<rect x="704" y="36" width="300" height="168" rx="22" fill="#f5f5f7"/>
<text x="722" y="66" font-size="14" fill="#8e8e93" font-weight="700" text-anchor="start" letter-spacing="0.08em">KEY</text>
<rect x="722" y="76" width="84" height="32" rx="16.0" fill="#e8f2ff"/>
<text x="738" y="97.58" font-size="15.5" fill="#0a5bd6" font-weight="600" text-anchor="start">model</text>
<text x="822" y="97" font-size="16.5" fill="#6e6e73" font-weight="400" text-anchor="start">reads and writes</text>
<rect x="722" y="116" width="84" height="32" rx="16.0" fill="#e7f6ec"/>
<text x="738" y="137.58" font-size="15.5" fill="#1f7a45" font-weight="600" text-anchor="start">code</text>
<text x="822" y="137" font-size="16.5" fill="#6e6e73" font-weight="400" text-anchor="start">decides</text>
<path d="M726 172 H802" fill="none" stroke="#0a84ff" stroke-width="2" stroke-dasharray="6 6" stroke-linecap="round" stroke-linejoin="round"/>
<text x="822" y="177" font-size="16.5" fill="#6e6e73" font-weight="400" text-anchor="start">call audio, WebRTC</text>
<rect x="68" y="248" width="936" height="420" rx="22" fill="#f5f5f7"/>
<text x="86" y="278" font-size="14" fill="#8e8e93" font-weight="700" text-anchor="start" letter-spacing="0.08em">SERVER ON RAILWAY</text>
<rect x="86" y="334" width="277" height="100" rx="16" fill="#ffffff" stroke="#e3e3e8" stroke-width="1.2"/>
<text x="104" y="366" font-size="19.5" fill="#1d1d1f" font-weight="600" text-anchor="start">WebSocket and HTTP</text>
<text x="104" y="392" font-size="16.5" fill="#6e6e73" font-weight="400" text-anchor="start">Texts, call controls, and</text>
<text x="104" y="415" font-size="16.5" fill="#6e6e73" font-weight="400" text-anchor="start">the sign-in callback</text>
<rect x="399" y="323" width="260" height="122" rx="16" fill="#ffffff" stroke="#e3e3e8" stroke-width="1.2"/>
<text x="417" y="355" font-size="19.5" fill="#1d1d1f" font-weight="600" text-anchor="start">Hub</text>
<text x="417" y="381" font-size="16.5" fill="#6e6e73" font-weight="400" text-anchor="start">One queue per session</text>
<text x="417" y="404" font-size="16.5" fill="#6e6e73" font-weight="400" text-anchor="start">SQLite state, event log</text>
<text x="417" y="427" font-size="16.5" fill="#6e6e73" font-weight="400" text-anchor="start">Injectable timer clock</text>
<rect x="695" y="296" width="291" height="176" rx="16" fill="#ffffff" stroke="#0a84ff" stroke-width="2"/>
<text x="713" y="328" font-size="19.5" fill="#1d1d1f" font-weight="600" text-anchor="start">Brain</text>
<rect x="711" y="344" width="259" height="32" rx="16.0" fill="#e8f2ff"/>
<text x="727" y="365.58" font-size="15.5" fill="#0a5bd6" font-weight="600" text-anchor="start">interpret: a model reads</text>
<rect x="711" y="384" width="259" height="32" rx="16.0" fill="#e7f6ec"/>
<text x="727" y="405.58" font-size="15.5" fill="#1f7a45" font-weight="600" text-anchor="start">decide: code decides</text>
<rect x="711" y="424" width="259" height="32" rx="16.0" fill="#e8f2ff"/>
<text x="727" y="445.58" font-size="15.5" fill="#0a5bd6" font-weight="600" text-anchor="start">render: a model writes</text>
<path d="M363 384 H399" fill="none" stroke="#8e8e93" stroke-width="2" marker-end="url(#arrow)" stroke-linecap="round" stroke-linejoin="round"/>
<path d="M659 384 H695" fill="none" stroke="#8e8e93" stroke-width="2" marker-end="url(#arrow)" stroke-linecap="round" stroke-linejoin="round"/>
<path d="M840.5 472 V500" fill="none" stroke="#8e8e93" stroke-width="2" stroke-linecap="round" stroke-linejoin="round"/>
<path d="M191.0 500 H881.0" fill="none" stroke="#8e8e93" stroke-width="2" stroke-linecap="round" stroke-linejoin="round"/>
<path d="M191.0 500 V528" fill="none" stroke="#8e8e93" stroke-width="2" marker-end="url(#arrow)" stroke-linecap="round" stroke-linejoin="round"/>
<path d="M421.0 500 V528" fill="none" stroke="#8e8e93" stroke-width="2" marker-end="url(#arrow)" stroke-linecap="round" stroke-linejoin="round"/>
<path d="M651.0 500 V528" fill="none" stroke="#8e8e93" stroke-width="2" marker-end="url(#arrow)" stroke-linecap="round" stroke-linejoin="round"/>
<path d="M881.0 500 V528" fill="none" stroke="#8e8e93" stroke-width="2" marker-end="url(#arrow)" stroke-linecap="round" stroke-linejoin="round"/>
<rect x="271.6" y="488.5" width="68.8" height="22.5" rx="6" fill="#ffffff"/>
<text x="306.0" y="505" font-size="14.5" fill="#8e8e93" font-weight="500" text-anchor="middle">actions</text>
<rect x="86" y="528" width="210" height="122" rx="16" fill="#ffffff" stroke="#e3e3e8" stroke-width="1.2"/>
<text x="104" y="560" font-size="19.5" fill="#1d1d1f" font-weight="600" text-anchor="start">Voice adapter</text>
<text x="104" y="586" font-size="16.5" fill="#6e6e73" font-weight="400" text-anchor="start">Pushes new facts</text>
<text x="104" y="609" font-size="16.5" fill="#6e6e73" font-weight="400" text-anchor="start">into the live call</text>
<rect x="316" y="528" width="210" height="122" rx="16" fill="#ffffff" stroke="#e3e3e8" stroke-width="1.2"/>
<text x="334" y="560" font-size="19.5" fill="#1d1d1f" font-weight="600" text-anchor="start">Model client</text>
<text x="334" y="586" font-size="16.5" fill="#6e6e73" font-weight="400" text-anchor="start">Every model call,</text>
<text x="334" y="609" font-size="16.5" fill="#6e6e73" font-weight="400" text-anchor="start">under one spend cap</text>
<rect x="546" y="528" width="210" height="122" rx="16" fill="#ffffff" stroke="#e3e3e8" stroke-width="1.2"/>
<text x="564" y="560" font-size="19.5" fill="#1d1d1f" font-weight="600" text-anchor="start">Task service</text>
<text x="564" y="586" font-size="16.5" fill="#6e6e73" font-weight="400" text-anchor="start">Reads the emails,</text>
<text x="564" y="609" font-size="16.5" fill="#6e6e73" font-weight="400" text-anchor="start">then code checks</text>
<text x="564" y="632" font-size="16.5" fill="#6e6e73" font-weight="400" text-anchor="start">every draft</text>
<rect x="776" y="528" width="210" height="122" rx="16" fill="#ffffff" stroke="#e3e3e8" stroke-width="1.2"/>
<text x="794" y="560" font-size="19.5" fill="#1d1d1f" font-weight="600" text-anchor="start">Google sign-in</text>
<text x="794" y="586" font-size="16.5" fill="#6e6e73" font-weight="400" text-anchor="start">Checks which</text>
<text x="794" y="609" font-size="16.5" fill="#6e6e73" font-weight="400" text-anchor="start">scopes came back</text>
<rect x="68" y="728" width="936" height="166" rx="22" fill="#f5f5f7"/>
<text x="86" y="758" font-size="14" fill="#8e8e93" font-weight="700" text-anchor="start" letter-spacing="0.08em">SERVICES</text>
<rect x="86" y="776" width="210" height="100" rx="16" fill="#ffffff" stroke="#e3e3e8" stroke-width="1.2"/>
<text x="104" y="808" font-size="19.5" fill="#1d1d1f" font-weight="600" text-anchor="start">GPT-Live</text>
<text x="104" y="834" font-size="16.5" fill="#6e6e73" font-weight="400" text-anchor="start">OpenAI gpt-live-1,</text>
<text x="104" y="857" font-size="16.5" fill="#6e6e73" font-weight="400" text-anchor="start">full-duplex voice</text>
<path d="M191.0 650 V776" fill="none" stroke="#8e8e93" stroke-width="2" marker-start="url(#arrow-start)" marker-end="url(#arrow)" stroke-linecap="round" stroke-linejoin="round"/>
<text x="203.0" y="703" font-size="14.5" fill="#8e8e93" font-weight="500" text-anchor="start">sideband</text>
<rect x="316" y="776" width="210" height="100" rx="16" fill="#ffffff" stroke="#e3e3e8" stroke-width="1.2"/>
<text x="334" y="808" font-size="19.5" fill="#1d1d1f" font-weight="600" text-anchor="start">Text models</text>
<text x="334" y="834" font-size="16.5" fill="#6e6e73" font-weight="400" text-anchor="start">Read texts, write</text>
<text x="334" y="857" font-size="16.5" fill="#6e6e73" font-weight="400" text-anchor="start">replies, run tasks</text>
<path d="M421.0 650 V776" fill="none" stroke="#8e8e93" stroke-width="2" marker-start="url(#arrow-start)" marker-end="url(#arrow)" stroke-linecap="round" stroke-linejoin="round"/>
<text x="433.0" y="703" font-size="14.5" fill="#8e8e93" font-weight="500" text-anchor="start">HTTPS</text>
<rect x="546" y="776" width="210" height="100" rx="16" fill="#ffffff" stroke="#e3e3e8" stroke-width="1.2"/>
<text x="564" y="808" font-size="19.5" fill="#1d1d1f" font-weight="600" text-anchor="start">Gmail API</text>
<text x="564" y="834" font-size="16.5" fill="#6e6e73" font-weight="400" text-anchor="start">Read-only, or the</text>
<text x="564" y="857" font-size="16.5" fill="#6e6e73" font-weight="400" text-anchor="start">sample inbox</text>
<path d="M651.0 650 V776" fill="none" stroke="#8e8e93" stroke-width="2" marker-start="url(#arrow-start)" marker-end="url(#arrow)" stroke-linecap="round" stroke-linejoin="round"/>
<text x="663.0" y="703" font-size="14.5" fill="#8e8e93" font-weight="500" text-anchor="start">read-only</text>
<rect x="776" y="776" width="210" height="100" rx="16" fill="#ffffff" stroke="#e3e3e8" stroke-width="1.2"/>
<text x="794" y="808" font-size="19.5" fill="#1d1d1f" font-weight="600" text-anchor="start">Google OAuth</text>
<text x="794" y="834" font-size="16.5" fill="#6e6e73" font-weight="400" text-anchor="start">Consent in a popup</text>
<path d="M881.0 650 V776" fill="none" stroke="#8e8e93" stroke-width="2" marker-start="url(#arrow-start)" marker-end="url(#arrow)" stroke-linecap="round" stroke-linejoin="round"/>
<text x="893.0" y="703" font-size="14.5" fill="#8e8e93" font-weight="500" text-anchor="start">OAuth</text>
<path d="M86 134 H58 Q44 134 44 148 V812 Q44 826 58 826 H86" fill="none" stroke="#0a84ff" stroke-width="2" stroke-dasharray="6 6" marker-start="url(#arrow-start-blue)" marker-end="url(#arrow-blue)" stroke-linecap="round" stroke-linejoin="round"/>
<path d="M300 184 V334" fill="none" stroke="#8e8e93" stroke-width="2" marker-start="url(#arrow-start)" marker-end="url(#arrow)" stroke-linecap="round" stroke-linejoin="round"/>
<path d="M420 184 V218 Q420 226 412 226 H300" fill="none" stroke="#8e8e93" stroke-width="2" marker-start="url(#arrow-start)" stroke-linecap="round" stroke-linejoin="round"/>
<text x="434" y="231" font-size="14.5" fill="#8e8e93" font-weight="500" text-anchor="start">WebSocket</text>
</svg>

